<svg xmlns="http://www.w3.org/2000/svg" xmlns:xlink="http://www.w3.org/1999/xlink" version="1.1" class="marks" width="664" height="439" viewBox="0 0 664 439"><rect width="664" height="439" fill="white"/><g fill="none" stroke-miterlimit="10" transform="translate(58,28)"><g class="mark-group role-frame root" role="graphics-object" aria-roledescription="group mark container"><g transform="translate(0,0)"><path class="background" aria-hidden="true" d="M0.5,0.5h600v370h-600Z" stroke="#ddd"/><g><g class="mark-group role-axis" aria-hidden="true"><g transform="translate(0.5,0.5)"><path class="background" aria-hidden="true" d="M0,0h0v0h0Z" pointer-events="none"/><g><g class="mark-rule role-axis-grid" pointer-events="none"><line transform="translate(0,370)" x2="600" y2="0" stroke="#ddd" stroke-width="1" opacity="1"/><line transform="translate(0,324)" x2="600" y2="0" stroke="#ddd" stroke-width="1" opacity="1"/><line transform="translate(0,278)" x2="600" y2="0" stroke="#ddd" stroke-width="1" opacity="1"/><line transform="translate(0,231)" x2="600" y2="0" stroke="#ddd" stroke-width="1" opacity="1"/><line transform="translate(0,185)" x2="600" y2="0" stroke="#ddd" stroke-width="1" opacity="1"/><line transform="translate(0,139)" x2="600" y2="0" stroke="#ddd" stroke-width="1" opacity="1"/><line transform="translate(0,93)" x2="600" y2="0" stroke="#ddd" stroke-width="1" opacity="1"/><line transform="translate(0,46)" x2="600" y2="0" stroke="#ddd" stroke-width="1" opacity="1"/><line transform="translate(0,0)" x2="600" y2="0" stroke="#ddd" stroke-width="1" opacity="1"/></g></g><path class="foreground" aria-hidden="true" d="" pointer-events="none" display="none"/></g></g><g class="mark-group role-axis" role="graphics-symbol" aria-roledescription="axis" aria-label="X-axis titled 'Read length (bp)' for a linear scale with values from 800 to 2,400"><g transform="translate(0.5,370.5)"><path class="background" aria-hidden="true" d="M0,0h0v0h0Z" pointer-events="none"/><g><g class="mark-rule role-axis-tick" pointer-events="none"><line transform="translate(0,0)" x2="0" y2="5" stroke="#888" stroke-width="1" opacity="1"/><line transform="translate(38,0)" x2="0" y2="5" stroke="#888" stroke-width="1" opacity="1"/><line transform="translate(75,0)" x2="0" y2="5" stroke="#888" stroke-width="1" opacity="1"/><line transform="translate(113,0)" x2="0" y2="5" stroke="#888" stroke-width="1" opacity="1"/><line transform="translate(150,0)" x2="0" y2="5" stroke="#888" stroke-width="1" opacity="1"/><line transform="translate(188,0)" x2="0" y2="5" stroke="#888" stroke-width="1" opacity="1"/><line transform="translate(225,0)" x2="0" y2="5" stroke="#888" stroke-width="1" opacity="1"/><line transform="translate(263,0)" x2="0" y2="5" stroke="#888" stroke-width="1" opacity="1"/><line transform="translate(300,0)" x2="0" y2="5" stroke="#888" stroke-width="1" opacity="1"/><line transform="translate(338,0)" x2="0" y2="5" stroke="#888" stroke-width="1" opacity="1"/><line transform="translate(375,0)" x2="0" y2="5" stroke="#888" stroke-width="1" opacity="1"/><line transform="translate(413,0)" x2="0" y2="5" stroke="#888" stroke-width="1" opacity="1"/><line transform="translate(450,0)" x2="0" y2="5" stroke="#888" stroke-width="1" opacity="1"/><line transform="translate(488,0)" x2="0" y2="5" stroke="#888" stroke-width="1" opacity="1"/><line transform="translate(525,0)" x2="0" y2="5" stroke="#888" stroke-width="1" opacity="1"/><line transform="translate(563,0)" x2="0" y2="5" stroke="#888" stroke-width="1" opacity="1"/><line transform="translate(600,0)" x2="0" y2="5" stroke="#888" stroke-width="1" opacity="1"/></g><g class="mark-text role-axis-label" pointer-events="none"><text text-anchor="start" transform="translate(0,16)" font-family="sans-serif" font-size="12px" fill="#000" opacity="1">800</text><text text-anchor="middle" transform="translate(37.5,16)" font-family="sans-serif" font-size="12px" fill="#000" opacity="0">900</text><text text-anchor="middle" transform="translate(75,16)" font-family="sans-serif" font-size="12px" fill="#000" opacity="1">1,000</text><text text-anchor="middle" transform="translate(112.5,16)" font-family="sans-serif" font-size="12px" fill="#000" opacity="0">1,100</text><text text-anchor="middle" transform="translate(150,16)" font-family="sans-serif" font-size="12px" fill="#000" opacity="1">1,200</text><text text-anchor="middle" transform="translate(187.5,16)" font-family="sans-serif" font-size="12px" fill="#000" opacity="0">1,300</text><text text-anchor="middle" transform="translate(225,16)" font-family="sans-serif" font-size="12px" fill="#000" opacity="1">1,400</text><text text-anchor="middle" transform="translate(262.5,16)" font-family="sans-serif" font-size="12px" fill="#000" opacity="0">1,500</text><text text-anchor="middle" transform="translate(300,16)" font-family="sans-serif" font-size="12px" fill="#000" opacity="1">1,600</text><text text-anchor="middle" transform="translate(337.5,16)" font-family="sans-serif" font-size="12px" fill="#000" opacity="0">1,700</text><text text-anchor="middle" transform="translate(375,16)" font-family="sans-serif" font-size="12px" fill="#000" opacity="1">1,800</text><text text-anchor="middle" transform="translate(412.5,16)" font-family="sans-serif" font-size="12px" fill="#000" opacity="0">1,900</text><text text-anchor="middle" transform="translate(450,16)" font-family="sans-serif" font-size="12px" fill="#000" opacity="1">2,000</text><text text-anchor="middle" transform="translate(487.5,16)" font-family="sans-serif" font-size="12px" fill="#000" opacity="0">2,100</text><text text-anchor="middle" transform="translate(525,16)" font-family="sans-serif" font-size="12px" fill="#000" opacity="1">2,200</text><text text-anchor="middle" transform="translate(562.5,16)" font-family="sans-serif" font-size="12px" fill="#000" opacity="0">2,300</text><text text-anchor="end" transform="translate(600,16)" font-family="sans-serif" font-size="12px" fill="#000" opacity="1">2,400</text></g><g class="mark-rule role-axis-domain" pointer-events="none"><line transform="translate(0,0)" x2="600" y2="0" stroke="#888" stroke-width="1" opacity="1"/></g><g class="mark-text role-axis-title" pointer-events="none"><text text-anchor="middle" transform="translate(300,33)" font-family="sans-serif" font-size="14px" font-weight="bold" fill="#000" opacity="1">Read length (bp)</text></g></g><path class="foreground" aria-hidden="true" d="" pointer-events="none" display="none"/></g></g><g class="mark-group role-axis" role="graphics-symbol" aria-roledescription="axis" aria-label="Y-axis titled 'Count' for a linear scale with values from 0 to 400"><g transform="translate(0.5,0.5)"><path class="background" aria-hidden="true" d="M0,0h0v0h0Z" pointer-events="none"/><g><g class="mark-rule role-axis-tick" pointer-events="none"><line transform="translate(0,370)" x2="-5" y2="0" stroke="#888" stroke-width="1" opacity="1"/><line transform="translate(0,324)" x2="-5" y2="0" stroke="#888" stroke-width="1" opacity="1"/><line transform="translate(0,278)" x2="-5" y2="0" stroke="#888" stroke-width="1" opacity="1"/><line transform="translate(0,231)" x2="-5" y2="0" stroke="#888" stroke-width="1" opacity="1"/><line transform="translate(0,185)" x2="-5" y2="0" stroke="#888" stroke-width="1" opacity="1"/><line transform="translate(0,139)" x2="-5" y2="0" stroke="#888" stroke-width="1" opacity="1"/><line transform="translate(0,93)" x2="-5" y2="0" stroke="#888" stroke-width="1" opacity="1"/><line transform="translate(0,46)" x2="-5" y2="0" stroke="#888" stroke-width="1" opacity="1"/><line transform="translate(0,0)" x2="-5" y2="0" stroke="#888" stroke-width="1" opacity="1"/></g><g class="mark-text role-axis-label" pointer-events="none"><text text-anchor="end" transform="translate(-7,374)" font-family="sans-serif" font-size="12px" fill="#000" opacity="1">0</text><text text-anchor="end" transform="translate(-7,327.75)" font-family="sans-serif" font-size="12px" fill="#000" opacity="1">50</text><text text-anchor="end" transform="translate(-7,281.5)" font-family="sans-serif" font-size="12px" fill="#000" opacity="1">100</text><text text-anchor="end" transform="translate(-7,235.25)" font-family="sans-serif" font-size="12px" fill="#000" opacity="1">150</text><text text-anchor="end" transform="translate(-7,189)" font-family="sans-serif" font-size="12px" fill="#000" opacity="1">200</text><text text-anchor="end" transform="translate(-7,142.75)" font-family="sans-serif" font-size="12px" fill="#000" opacity="1">250</text><text text-anchor="end" transform="translate(-7,96.5)" font-family="sans-serif" font-size="12px" fill="#000" opacity="1">300</text><text text-anchor="end" transform="translate(-7,50.25)" font-family="sans-serif" font-size="12px" fill="#000" opacity="1">350</text><text text-anchor="end" transform="translate(-7,4)" font-family="sans-serif" font-size="12px" fill="#000" opacity="1">400</text></g><g class="mark-rule role-axis-domain" pointer-events="none"><line transform="translate(0,370)" x2="0" y2="-370" stroke="#888" stroke-width="1" opacity="1"/></g><g class="mark-text role-axis-title" pointer-events="none"><text text-anchor="middle" transform="translate(-39,185) rotate(-90) translate(0,-3)" font-family="sans-serif" font-size="14px" font-weight="bold" fill="#000" opacity="1">Count</text></g></g><path class="foreground" aria-hidden="true" d="" pointer-events="none" display="none"/></g></g><g class="mark-rect role-mark marks" role="graphics-object" aria-roledescription="rect mark container"><path aria-label="Read length (bp): 800 – 1000; Count: 41" role="graphics-symbol" aria-roledescription="bar" d="M1,332.075h74v37.92500000000001h-74Z" fill="#003366"/><path aria-label="Read length (bp): 1000 – 1200; Count: 77" role="graphics-symbol" aria-roledescription="bar" d="M76,298.775h74v71.22500000000002h-74Z" fill="#003366"/><path aria-label="Read length (bp): 1200 – 1400; Count: 75" role="graphics-symbol" aria-roledescription="bar" d="M151,300.625h74v69.375h-74Z" fill="#003366"/><path aria-label="Read length (bp): 1400 – 1600; Count: 79" role="graphics-symbol" aria-roledescription="bar" d="M226,296.925h74v73.07499999999999h-74Z" fill="#003366"/><path aria-label="Read length (bp): 1600 – 1800; Count: 78" role="graphics-symbol" aria-roledescription="bar" d="M301,297.84999999999997h74v72.15000000000003h-74Z" fill="#003366"/><path aria-label="Read length (bp): 1800 – 2000; Count: 90" role="graphics-symbol" aria-roledescription="bar" d="M376,286.75h74v83.25h-74Z" fill="#003366"/><path aria-label="Read length (bp): 2000 – 2200; Count: 373" role="graphics-symbol" aria-roledescription="bar" d="M451,24.975h74v345.025h-74Z" fill="#003366"/><path aria-label="Read length (bp): 2200 – 2400; Count: 87" role="graphics-symbol" aria-roledescription="bar" d="M526,289.525h74v80.47500000000002h-74Z" fill="#003366"/></g><g class="mark-group role-title"><g transform="translate(300,-23)"><path class="background" aria-hidden="true" d="M0,0h0v0h0Z" pointer-events="none"/><g><g class="mark-text role-title-text" role="graphics-symbol" aria-roledescription="title" aria-label="Title text 'Read length distribution'" pointer-events="none"><text text-anchor="middle" transform="translate(0,10)" font-family="sans-serif" font-size="13px" font-weight="bold" fill="#000" opacity="1">Read length distribution</text></g></g><path class="foreground" aria-hidden="true" d="" pointer-events="none" display="none"/></g></g></g><path class="foreground" aria-hidden="true" d="" display="none"/></g></g></g></svg>