<svg xmlns="http://www.w3.org/2000/svg" xmlns:xlink="http://www.w3.org/1999/xlink" version="1.1" class="marks" width="685" height="439" viewBox="0 0 685 439"><rect width="685" height="439" fill="white"/><g fill="none" stroke-miterlimit="10" transform="translate(78,28)"><g class="mark-group role-frame root" role="graphics-object" aria-roledescription="group mark container"><g transform="translate(0,0)"><path class="background" aria-hidden="true" d="M0.5,0.5h600v370h-600Z" stroke="#ddd"/><g><g class="mark-group role-axis" aria-hidden="true"><g transform="translate(0.5,370.5)"><path class="background" aria-hidden="true" d="M0,0h0v0h0Z" pointer-events="none"/><g><g class="mark-rule role-axis-grid" pointer-events="none"><line transform="translate(0,-370)" x2="0" y2="370" stroke="#ddd" stroke-width="1" opacity="1"/><line transform="translate(38,-370)" x2="0" y2="370" stroke="#ddd" stroke-width="1" opacity="1"/><line transform="translate(75,-370)" x2="0" y2="370" stroke="#ddd" stroke-width="1" opacity="1"/><line transform="translate(113,-370)" x2="0" y2="370" stroke="#ddd" stroke-width="1" opacity="1"/><line transform="translate(150,-370)" x2="0" y2="370" stroke="#ddd" stroke-width="1" opacity="1"/><line transform="translate(188,-370)" x2="0" y2="370" stroke="#ddd" stroke-width="1" opacity="1"/><line transform="translate(225,-370)" x2="0" y2="370" stroke="#ddd" stroke-width="1" opacity="1"/><line transform="translate(263,-370)" x2="0" y2="370" stroke="#ddd" stroke-width="1" opacity="1"/><line transform="translate(300,-370)" x2="0" y2="370" stroke="#ddd" stroke-width="1" opacity="1"/><line transform="translate(338,-370)" x2="0" y2="370" stroke="#ddd" stroke-width="1" opacity="1"/><line transform="translate(375,-370)" x2="0" y2="370" stroke="#ddd" stroke-width="1" opacity="1"/><line transform="translate(413,-370)" x2="0" y2="370" stroke="#ddd" stroke-width="1" opacity="1"/><line transform="translate(450,-370)" x2="0" y2="370" stroke="#ddd" stroke-width="1" opacity="1"/><line transform="translate(488,-370)" x2="0" y2="370" stroke="#ddd" stroke-width="1" opacity="1"/><line transform="translate(525,-370)" x2="0" y2="370" stroke="#ddd" stroke-width="1" opacity="1"/><line transform="translate(563,-370)" x2="0" y2="370" stroke="#ddd" stroke-width="1" opacity="1"/><line transform="translate(600,-370)" x2="0" y2="370" stroke="#ddd" stroke-width="1" opacity="1"/></g></g><path class="foreground" aria-hidden="true" d="" pointer-events="none" display="none"/></g></g><g class="mark-group role-axis" aria-hidden="true"><g transform="translate(0.5,0.5)"><path class="background" aria-hidden="true" d="M0,0h0v0h0Z" pointer-events="none"/><g><g class="mark-rule role-axis-grid" pointer-events="none"><line transform="translate(0,370)" x2="600" y2="0" stroke="#ddd" stroke-width="1" opacity="1"/><line transform="translate(0,324)" x2="600" y2="0" stroke="#ddd" stroke-width="1" opacity="1"/><line transform="translate(0,278)" x2="600" y2="0" stroke="#ddd" stroke-width="1" opacity="1"/><line transform="translate(0,231)" x2="600" y2="0" stroke="#ddd" stroke-width="1" opacity="1"/><line transform="translate(0,185)" x2="600" y2="0" stroke="#ddd" stroke-width="1" opacity="1"/><line transform="translate(0,139)" x2="600" y2="0" stroke="#ddd" stroke-width="1" opacity="1"/><line transform="translate(0,93)" x2="600" y2="0" stroke="#ddd" stroke-width="1" opacity="1"/><line transform="translate(0,46)" x2="600" y2="0" stroke="#ddd" stroke-width="1" opacity="1"/><line transform="translate(0,0)" x2="600" y2="0" stroke="#ddd" stroke-width="1" opacity="1"/></g></g><path class="foreground" aria-hidden="true" d="" pointer-events="none" display="none"/></g></g><g class="mark-group role-axis" role="graphics-symbol" aria-roledescription="axis" aria-label="X-axis titled 'Sequence length (bp)' for a linear scale with values from 800 to 2,400"><g transform="translate(0.5,370.5)"><path class="background" aria-hidden="true" d="M0,0h0v0h0Z" pointer-events="none"/><g><g class="mark-rule role-axis-tick" pointer-events="none"><line transform="translate(0,0)" x2="0" y2="5" stroke="#888" stroke-width="1" opacity="1"/><line transform="translate(38,0)" x2="0" y2="5" stroke="#888" stroke-width="1" opacity="1"/><line transform="translate(75,0)" x2="0" y2="5" stroke="#888" stroke-width="1" opacity="1"/><line transform="translate(113,0)" x2="0" y2="5" stroke="#888" stroke-width="1" opacity="1"/><line transform="translate(150,0)" x2="0" y2="5" stroke="#888" stroke-width="1" opacity="1"/><line transform="translate(188,0)" x2="0" y2="5" stroke="#888" stroke-width="1" opacity="1"/><line transform="translate(225,0)" x2="0" y2="5" stroke="#888" stroke-width="1" opacity="1"/><line transform="translate(263,0)" x2="0" y2="5" stroke="#888" stroke-width="1" opacity="1"/><line transform="translate(300,0)" x2="0" y2="5" stroke="#888" stroke-width="1" opacity="1"/><line transform="translate(338,0)" x2="0" y2="5" stroke="#888" stroke-width="1" opacity="1"/><line transform="translate(375,0)" x2="0" y2="5" stroke="#888" stroke-width="1" opacity="1"/><line transform="translate(413,0)" x2="0" y2="5" stroke="#888" stroke-width="1" opacity="1"/><line transform="translate(450,0)" x2="0" y2="5" stroke="#888" stroke-width="1" opacity="1"/><line transform="translate(488,0)" x2="0" y2="5" stroke="#888" stroke-width="1" opacity="1"/><line transform="translate(525,0)" x2="0" y2="5" stroke="#888" stroke-width="1" opacity="1"/><line transform="translate(563,0)" x2="0" y2="5" stroke="#888" stroke-width="1" opacity="1"/><line transform="translate(600,0)" x2="0" y2="5" stroke="#888" stroke-width="1" opacity="1"/></g><g class="mark-text role-axis-label" pointer-events="none"><text text-anchor="start" transform="translate(0,16)" font-family="sans-serif" font-size="12px" fill="#000" opacity="1">800</text><text text-anchor="middle" transform="translate(37.5,16)" font-family="sans-serif" font-size="12px" fill="#000" opacity="0">900</text><text text-anchor="middle" transform="translate(75,16)" font-family="sans-serif" font-size="12px" fill="#000" opacity="1">1,000</text><text text-anchor="middle" transform="translate(112.5,16)" font-family="sans-serif" font-size="12px" fill="#000" opacity="0">1,100</text><text text-anchor="middle" transform="translate(150,16)" font-family="sans-serif" font-size="12px" fill="#000" opacity="1">1,200</text><text text-anchor="middle" transform="translate(187.5,16)" font-family="sans-serif" font-size="12px" fill="#000" opacity="0">1,300</text><text text-anchor="middle" transform="translate(225,16)" font-family="sans-serif" font-size="12px" fill="#000" opacity="1">1,400</text><text text-anchor="middle" transform="translate(262.5,16)" font-family="sans-serif" font-size="12px" fill="#000" opacity="0">1,500</text><text text-anchor="middle" transform="translate(300,16)" font-family="sans-serif" font-size="12px" fill="#000" opacity="1">1,600</text><text text-anchor="middle" transform="translate(337.5,16)" font-family="sans-serif" font-size="12px" fill="#000" opacity="0">1,700</text><text text-anchor="middle" transform="translate(375,16)" font-family="sans-serif" font-size="12px" fill="#000" opacity="1">1,800</text><text text-anchor="middle" transform="translate(412.5,16)" font-family="sans-serif" font-size="12px" fill="#000" opacity="0">1,900</text><text text-anchor="middle" transform="translate(450,16)" font-family="sans-serif" font-size="12px" fill="#000" opacity="1">2,000</text><text text-anchor="middle" transform="translate(487.5,16)" font-family="sans-serif" font-size="12px" fill="#000" opacity="0">2,100</text><text text-anchor="middle" transform="translate(525,16)" font-family="sans-serif" font-size="12px" fill="#000" opacity="1">2,200</text><text text-anchor="middle" transform="translate(562.5,16)" font-family="sans-serif" font-size="12px" fill="#000" opacity="0">2,300</text><text text-anchor="end" transform="translate(600,16)" font-family="sans-serif" font-size="12px" fill="#000" opacity="1">2,400</text></g><g class="mark-rule role-axis-domain" pointer-events="none"><line transform="translate(0,0)" x2="600" y2="0" stroke="#888" stroke-width="1" opacity="1"/></g><g class="mark-text role-axis-title" pointer-events="none"><text text-anchor="middle" transform="translate(300,33)" font-family="sans-serif" font-size="14px" font-weight="bold" fill="#000" opacity="1">Sequence length (bp)</text></g></g><path class="foreground" aria-hidden="true" d="" pointer-events="none" display="none"/></g></g><g class="mark-group role-axis" role="graphics-symbol" aria-roledescription="axis" aria-label="Y-axis titled 'Alignment length (bp)' for a linear scale with values from 800 to 2,400"><g transform="translate(0.5,0.5)"><path class="background" aria-hidden="true" d="M0,0h0v0h0Z" pointer-events="none"/><g><g class="mark-rule role-axis-tick" pointer-events="none"><line transform="translate(0,370)" x2="-5" y2="0" stroke="#888" stroke-width="1" opacity="1"/><line transform="translate(0,324)" x2="-5" y2="0" stroke="#888" stroke-width="1" opacity="1"/><line transform="translate(0,278)" x2="-5" y2="0" stroke="#888" stroke-width="1" opacity="1"/><line transform="translate(0,231)" x2="-5" y2="0" stroke="#888" stroke-width="1" opacity="1"/><line transform="translate(0,185)" x2="-5" y2="0" stroke="#888" stroke-width="1" opacity="1"/><line transform="translate(0,139)" x2="-5" y2="0" stroke="#888" stroke-width="1" opacity="1"/><line transform="translate(0,93)" x2="-5" y2="0" stroke="#888" stroke-width="1" opacity="1"/><line transform="translate(0,46)" x2="-5" y2="0" stroke="#888" stroke-width="1" opacity="1"/><line transform="translate(0,0)" x2="-5" y2="0" stroke="#888" stroke-width="1" opacity="1"/></g><g class="mark-text role-axis-label" pointer-events="none"><text text-anchor="end" transform="translate(-7,374)" font-family="sans-serif" font-size="12px" fill="#000" opacity="1">800</text><text text-anchor="end" transform="translate(-7,327.75)" font-family="sans-serif" font-size="12px" fill="#000" opacity="1">1,000</text><text text-anchor="end" transform="translate(-7,281.5)" font-family="sans-serif" font-size="12px" fill="#000" opacity="1">1,200</text><text text-anchor="end" transform="translate(-7,235.25)" font-family="sans-serif" font-size="12px" fill="#000" opacity="1">1,400</text><text text-anchor="end" transform="translate(-7,189)" font-family="sans-serif" font-size="12px" fill="#000" opacity="1">1,600</text><text text-anchor="end" transform="translate(-7,142.75)" font-family="sans-serif" font-size="12px" fill="#000" opacity="1">1,800</text><text text-anchor="end" transform="translate(-7,96.5)" font-family="sans-serif" font-size="12px" fill="#000" opacity="1">2,000</text><text text-anchor="end" transform="translate(-7,50.25)" font-family="sans-serif" font-size="12px" fill="#000" opacity="1">2,200</text><text text-anchor="end" transform="translate(-7,4)" font-family="sans-serif" font-size="12px" fill="#000" opacity="1">2,400</text></g><g class="mark-rule role-axis-domain" pointer-events="none"><line transform="translate(0,370)" x2="0" y2="-370" stroke="#888" stroke-width="1" opacity="1"/></g><g class="mark-text role-axis-title" pointer-events="none"><text text-anchor="middle" transform="translate(-59,185) rotate(-90) translate(0,-3)" font-family="sans-serif" font-size="14px" font-weight="bold" fill="#000" opacity="1">Alignment length (bp)</text></g></g><path class="foreground" aria-hidden="true" d="" pointer-events="none" display="none"/></g></g><g class="mark-line role-mark marks" role="graphics-object" aria-roledescription="line mark container"><path aria-label="Sequence length (bp): 902; Alignment length (bp): 902" role="graphics-symbol" aria-roledescription="line mark" d="M38.25,346.413L38.625,346.181L40.875,344.794L42.375,343.869L42.75,343.638L43.125,343.406L45.375,342.019L46.5,341.325L46.875,341.094L46.875,341.094L47.625,340.631L48.75,339.938L50.625,338.781L51.75,338.088L51.75,338.088L52.125,337.856L53.25,337.163L54.75,336.237L56.625,335.081L57.375,334.619L58.875,333.694L60,333L61.125,332.306L61.875,331.844L61.875,331.844L63.375,330.919L64.875,329.994L65.625,329.531L66.375,329.069L66.375,329.069L66.75,328.838L66.75,328.838L70.5,326.525L70.875,326.294L72.375,325.369L72.75,325.138L73.125,324.906L75,323.75L77.25,322.363L77.25,322.363L77.625,322.131L79.125,321.206L80.25,320.513L82.5,319.125L83.625,318.431L84.75,317.738L85.5,317.275L85.875,317.044L86.25,316.813L88.125,315.656L88.5,315.425L88.875,315.194L88.875,315.194L90.75,314.038L91.125,313.806L94.5,311.725L95.625,311.031L96.375,310.569L96.75,310.338L98.625,309.181L99,308.95L99.75,308.488L100.5,308.025L100.5,308.025L101.25,307.563L101.625,307.331L101.625,307.331L102,307.1L102.75,306.638L105,305.25L105,305.25L105.75,304.787L106.5,304.325L106.5,304.325L111.375,301.319L112.125,300.856L120.375,295.769L120.375,295.769L121.125,295.306L122.25,294.613L128.625,290.681L128.625,290.681L130.5,289.525L133.875,287.444L134.625,286.981L135,286.75L137.25,285.363L139.875,283.744L141,283.05L141.375,282.819L142.125,282.356L142.875,281.894L143.625,281.431L144,281.2L144.75,280.738L145.125,280.506L146.25,279.813L146.25,279.813L146.25,279.813L146.625,279.581L146.625,279.581L147,279.35L147.75,278.888L148.5,278.425L149.25,277.963L151.125,276.806L152.25,276.113L154.875,274.494L156.75,273.338L158.625,272.181L159.75,271.488L160.125,271.256L160.5,271.025L160.875,270.794L161.25,270.563L163.875,268.944L165.375,268.019L168.75,265.938L168.75,265.938L170.25,265.013L170.625,264.781L170.625,264.781L171,264.55L171.75,264.088L172.5,263.625L173.25,263.162L175.125,262.006L175.125,262.006L176.25,261.313L176.25,261.313L176.625,261.081L177.75,260.388L178.5,259.925L178.875,259.694L180,259L180.375,258.769L185.25,255.762L186.75,254.837L187.875,254.144L189.375,253.219L190.5,252.525L190.5,252.525L191.625,251.831L192.375,251.369L192.375,251.369L192.75,251.138L195.375,249.519L196.125,249.056L196.125,249.056L196.875,248.594L198.75,247.437L198.75,247.437L198.75,247.437L199.125,247.206L203.25,244.663L203.625,244.431L204.375,243.969L204.75,243.737L205.125,243.506L206.625,242.581L207.75,241.888L210,240.5L211.125,239.806L213,238.65L213.75,238.188L218.625,235.181L219,234.95L219.75,234.488L220.875,233.794L221.625,233.331L221.625,233.331L224.25,231.712L226.5,230.325L228,229.4L228,229.4L229.125,228.706L229.5,228.475L230.625,227.781L231,227.55L232.875,226.394L232.875,226.394L233.625,225.931L234.375,225.469L236.25,224.312L238.875,222.694L240.75,221.538L241.125,221.306L241.125,221.306L241.875,220.844L244.125,219.456L244.125,219.456L244.5,219.225L244.875,218.994L244.875,218.994L245.25,218.763L247.5,217.375L249,216.45L249.375,216.219L253.5,213.675L257.25,211.363L259.125,210.206L259.5,209.975L260.25,209.512L262.5,208.125L264.375,206.969L264.75,206.738L264.75,206.738L264.75,206.738L265.875,206.044L265.875,206.044L267,205.35L267.75,204.888L269.25,203.963L271.125,202.806L271.875,202.344L273,201.65L273.375,201.419L274.125,200.956L276,199.8L276.75,199.338L278.625,198.181L279.75,197.487L280.125,197.256L283.5,195.175L283.875,194.944L284.25,194.713L285,194.25L286.5,193.325L288,192.4L289.875,191.244L291.375,190.319L291.375,190.319L292.5,189.625L295.875,187.544L297,186.85L299.625,185.231L301.125,184.306L302.25,183.612L303.375,182.919L303.75,182.688L304.125,182.456L304.5,182.225L307.875,180.144L308.25,179.913L308.25,179.913L308.25,179.913L310.125,178.756L310.5,178.525L311.25,178.062L312.375,177.369L312.375,177.369L317.25,174.362L318.375,173.669L321.375,171.819L321.75,171.588L322.125,171.356L323.25,170.663L323.625,170.431L323.625,170.431L324.75,169.737L325.125,169.506L325.5,169.275L326.625,168.581L327.375,168.119L327.75,167.888L328.125,167.656L328.5,167.425L328.875,167.194L329.25,166.963L330,166.5L330,166.5L332.25,165.113L334.875,163.494L335.625,163.031L336,162.8L336.75,162.337L338.625,161.181L338.625,161.181L338.625,161.181L339,160.95L339.75,160.487L339.75,160.487L340.125,160.256L342.375,158.869L344.25,157.713L347.625,155.631L348,155.4L349.125,154.706L350.25,154.013L352.5,152.625L353.25,152.163L353.25,152.163L353.625,151.931L353.625,151.931L354,151.7L360.75,147.538L361.5,147.075L363.75,145.688L365.625,144.531L366.375,144.069L366.75,143.838L368.625,142.681L368.625,142.681L369.375,142.219L370.125,141.756L370.5,141.525L372,140.6L372,140.6L372.375,140.369L375.375,138.519L376.5,137.825L377.625,137.131L378,136.9L378.375,136.669L378.75,136.438L379.5,135.975L380.625,135.281L381.375,134.819L385.875,132.044L387.75,130.888L389.25,129.962L391.875,128.344L393.375,127.419L394.5,126.725L395.25,126.263L397.875,124.644L398.625,124.181L399,123.95L400.125,123.256L400.875,122.794L401.25,122.563L401.625,122.331L402.75,121.637L404.25,120.713L405,120.25L406.125,119.556L406.125,119.556L407.25,118.863L414.75,114.237L414.75,114.237L415.875,113.544L416.25,113.313L416.625,113.081L417,112.85L417.375,112.619L417.375,112.619L420,111L421.5,110.075L422.625,109.381L423,109.15L423,109.15L423.75,108.687L425.25,107.763L427.125,106.606L427.125,106.606L427.5,106.375L428.625,105.681L429.375,105.219L430.5,104.525L431.625,103.831L433.125,102.906L433.875,102.444L434.625,101.981L434.625,101.981L437.25,100.363L438,99.9L438,99.9L438.375,99.669L438.375,99.669L438.75,99.438L440.25,98.512L440.25,98.512L440.25,98.512L440.625,98.281L441.375,97.819L441.375,97.819L441.75,97.588L441.75,97.588L442.875,96.894L442.875,96.894L443.625,96.431L444,96.2L445.125,95.506L445.5,95.275L447.375,94.119L447.75,93.888L447.75,93.888L450,92.5L451.5,91.575L451.875,91.344L453.375,90.419L453.75,90.188L454.5,89.725L455.25,89.262L455.625,89.031L456.375,88.569L457.875,87.644L457.875,87.644L459,86.95L460.125,86.256L461.625,85.331L462.375,84.869L462.375,84.869L463.125,84.406L463.5,84.175L463.5,84.175L466.125,82.556L468.75,80.938L469.125,80.706L469.125,80.706L469.5,80.475L469.875,80.244L470.625,79.781L478.125,75.156L478.875,74.694L479.25,74.463L481.875,72.844L482.25,72.613L483.375,71.919L485.25,70.763L485.625,70.531L486,70.3L486.75,69.837L486.75,69.837L487.125,69.606L487.125,69.606L489.75,67.987L491.25,67.063L492,66.6L494.25,65.213L495.375,64.519L495.75,64.287L498.375,62.669L498.75,62.437L501,61.05L502.125,60.356L502.5,60.125L505.875,58.044L509.625,55.731L510.375,55.269L511.875,54.344L512.625,53.881L513.375,53.419L514.125,52.956L514.5,52.725L515.25,52.262L515.625,52.031L517.125,51.106L520.5,49.025L521.25,48.562L524.25,46.712L526.5,45.325L528.375,44.169L529.125,43.706L529.5,43.475L529.875,43.244L530.25,43.012L530.625,42.781L530.625,42.781L531.375,42.319L532.875,41.394L534,40.7L535.125,40.006L535.875,39.544L539.25,37.462L539.625,37.231L541.125,36.306L541.875,35.844L541.875,35.844L543,35.15L546.75,32.838L547.125,32.606L547.875,32.144L548.25,31.913L548.625,31.681L549.75,30.987L550.125,30.756L550.5,30.525L550.875,30.294L552.75,29.137L553.5,28.675L555,27.75L557.25,26.363L558,25.9L559.5,24.975L560.625,24.281L560.625,24.281L565.875,21.044L566.25,20.813L566.25,20.813L566.25,20.813L567.375,20.119L571.5,17.575L573.375,16.419L575.625,15.031L576.75,14.337L577.125,14.106L577.5,13.875L578.25,13.413L578.25,13.413L579.375,12.719L580.125,12.256L580.5,12.025L581.625,11.331L582,11.1L582.75,10.638L584.625,9.481L585,9.25L585.375,9.019L585.75,8.788L586.5,8.325L586.875,8.094L588.375,7.169L590.25,6.012L590.25,6.012L591,5.55L591.375,5.319L592.125,4.856L594.375,3.469L595.875,2.544L595.875,2.544L597,1.85L597.375,1.619L598.5,0.925L598.875,0.694L599.625,0.231L599.625,0.231" stroke="#003366" stroke-width="2"/></g><g class="mark-group role-title"><g transform="translate(300,-23)"><path class="background" aria-hidden="true" d="M0,0h0v0h0Z" pointer-events="none"/><g><g class="mark-text role-title-text" role="graphics-symbol" aria-roledescription="title" aria-label="Title text 'Sequence length vs alignment length'" pointer-events="none"><text text-anchor="middle" transform="translate(0,10)" font-family="sans-serif" font-size="13px" font-weight="bold" fill="#000" opacity="1">Sequence length vs alignment length</text></g></g><path class="foreground" aria-hidden="true" d="" pointer-events="none" display="none"/></g></g></g><path class="foreground" aria-hidden="true" d="" display="none"/></g></g></g></svg>